<?xml version="1.0" encoding="UTF-8"?>
<svg id="Layer_1" xmlns="http://www.w3.org/2000/svg" viewBox="0 0 457.87 415.04">
  <defs>
    <style>
      .cls-1 {
        fill: #fff;
      }
    </style>
  </defs>
  <path class="cls-1" d="M244.78,243.64c0,49.66-.33,99.32.17,148.97.19,18.51-9.82,26.46-28.61,20.37-3.3-1.07-6.62-2.49-9.47-4.42-38.23-25.92-81.32-38.54-126.21-46.17-9.03-1.53-18.15-2.49-27.19-3.95C22.2,353.38.1,327.73.07,296.13-.02,216.48-.03,136.83.08,57.17.11,29.7,17.44,7.03,42.03,1.24c9.69-2.28,19.2-.96,28.77.37,43.66,6.09,86.04,16.66,125.56,36.79,8.88,4.52,17.28,10.03,25.77,15.3,4.64,2.88,8.98,3.08,13.51.01,41.66-28.13,88.67-41.59,137.5-49.99,8.04-1.38,16.15-2.36,24.26-3.31,23.12-2.69,44.69,8.88,54.14,30.21,3.42,7.73,5.94,16.61,6,24.98.49,63.98.31,127.97.25,191.96-.01,11.9-6.66,18.55-17.26,17.77-6.97-.52-12.57-5.74-13.34-12.68-.3-2.64-.23-5.32-.23-7.99-.01-60.32,0-120.64-.03-180.96,0-3.49-.07-7.02-.59-10.46-2.38-15.65-12.84-23.71-28.56-21.52-13.52,1.88-27.04,3.99-40.4,6.77-33.46,6.96-65.7,17.39-95.16,35.24-3.28,1.99-6.24,4.63-9.72,6.11-6.64,2.81-7.88,7.64-7.85,14.34.24,49.82.13,99.65.13,149.47ZM213.07,229.49c0-46-.02-91.99.03-137.99,0-4-.58-7.06-4.44-9.7-29.79-20.3-62.78-32.99-97.63-40.94-17.03-3.88-34.39-6.35-51.63-9.24-9.74-1.63-17.8,1.58-23.57,9.72-4.36,6.15-4.91,13.32-4.91,20.56,0,76.66,0,153.32,0,229.98,0,1.67,0,3.34.1,5,1.08,16.49,11.82,28.28,28.2,30.87,12.67,2,25.42,3.54,38.02,5.93,38.53,7.31,75.68,18.7,109.95,38.29,4.63,2.65,5.69,1.98,5.86-3.49.06-1.83.02-3.67.02-5.5,0-44.5,0-88.99,0-133.49Z"/>
  <path class="cls-1" d="M372.77,357.01c0,12.83.06,25.66-.03,38.49-.08,12.13-6.38,19.71-16.03,19.54-9.52-.17-15.57-7.56-15.61-19.46-.08-25.66-.03-51.32-.02-76.97,0-1,.01-2,.08-3,.66-10.47,6.84-17.01,15.97-16.91,8.88.1,15.16,6.58,15.48,16.83.36,11.49.14,22.99.17,34.48,0,2.33,0,4.67,0,7Z"/>
  <path class="cls-1" d="M356.7,229.56c11.43-.07,20.88,8.99,21.03,20.15.16,11.86-9.24,21.4-21.07,21.39-11.19,0-20.45-9.43-20.54-20.9-.09-11.23,9.22-20.57,20.58-20.64Z"/>
  <path class="cls-1" d="M81.03,111.34c17.69,3.94,35.48,7.46,53.03,11.96,11.9,3.05,23.53,7.25,35.14,11.33,8.59,3.02,12.76,10.99,10.6,18.95-2.31,8.52-10.5,13.38-18.97,10.87-6.85-2.03-13.43-5.07-20.35-6.79-20.17-5-40.47-9.49-60.67-14.36-3.48-.84-7.14-2.03-10.02-4.05-5.3-3.71-6.97-11.03-4.7-17.07,2.46-6.56,8.09-10.1,15.96-10.84Z"/>
  <path class="cls-1" d="M80.65,196.7c15.6,3.42,31.31,6.42,46.76,10.44,8.1,2.11,11.98,11.02,9.67,18.86-2.27,7.71-10.23,12.24-18.5,10.57-13.88-2.8-27.78-5.5-41.64-8.4-8.33-1.74-13.71-9.25-12.63-17.21,1.05-7.81,7.89-13.46,16.34-14.26Z"/>
</svg>