<?xml version="1.0" encoding="utf-8"?>
<!-- Generator: Adobe Illustrator 24.0.0, SVG Export Plug-In . SVG Version: 6.00 Build 0)  -->
<svg version="1.1" id="Camada_1" xmlns="http://www.w3.org/2000/svg" xmlns:xlink="http://www.w3.org/1999/xlink" x="0px" y="0px"
	 viewBox="0 0 24 18" style="enable-background:new 0 0 24 18;" xml:space="preserve">
<style type="text/css">
	.st0{fill:#FFFFFF;}
</style>
<title>generic_app_icon</title>
<path class="st0" d="M10.8,16.7l-1.8-0.5c-0.2-0.1-0.3-0.3-0.2-0.4l4.1-14.1c0.1-0.2,0.3-0.3,0.4-0.2l1.8,0.5
	c0.2,0.1,0.3,0.3,0.2,0.4l-4.1,14.1C11.2,16.6,11,16.7,10.8,16.7z M7.4,13.3l1.3-1.4c0.1-0.1,0.1-0.4,0-0.5L5.9,9l2.7-2.4
	c0.2-0.1,0.2-0.4,0-0.5L7.4,4.7C7.2,4.6,7,4.6,6.8,4.7l-4.3,4c-0.2,0.1-0.2,0.4,0,0.5l4.3,4C7,13.4,7.2,13.4,7.4,13.3L7.4,13.3z
	 M17.2,13.3l4.3-4c0.2-0.1,0.2-0.4,0-0.5l-4.3-4c-0.1-0.1-0.4-0.1-0.5,0l-1.3,1.4c-0.1,0.1-0.1,0.4,0,0.5L18.1,9l-2.7,2.4
	c-0.2,0.1-0.2,0.4,0,0.5l1.3,1.4C16.8,13.4,17,13.4,17.2,13.3L17.2,13.3z"/>
</svg>
