<?xml version="1.0" encoding="utf-8"?>
<!-- Generator: Adobe Illustrator 24.0.0, SVG Export Plug-In . SVG Version: 6.00 Build 0)  -->
<svg version="1.1" id="Camada_1" xmlns="http://www.w3.org/2000/svg" xmlns:xlink="http://www.w3.org/1999/xlink" x="0px" y="0px"
	 viewBox="0 0 24 18" style="enable-background:new 0 0 24 18;" xml:space="preserve">
<style type="text/css">
	.st0{fill:#FFFFFF;}
</style>
<title>generic_app_icon</title>
<g>
	<g>
		<g>
			<circle class="st0" cx="14.1" cy="8.2" r="0.4"/>
			<circle class="st0" cx="14.8" cy="7.5" r="0.4"/>
			<polygon class="st0" points="9.2,7.4 8.6,7.4 8.6,8 8,8 8,8.7 8.6,8.7 8.6,9.3 9.2,9.3 9.2,8.7 9.8,8.7 9.8,8 9.2,8 			"/>
			<path class="st0" d="M12,1.5C7.9,1.5,4.5,4.9,4.5,9s3.4,7.5,7.5,7.5s7.5-3.4,7.5-7.5S16.1,1.5,12,1.5z M15.9,12.3h-0.7L13.8,10
				h-1.6h-0.4h-1.6l-1.4,2.3H8.1c-0.5,0-0.9-0.4-0.9-0.9L7.4,8c0,0,0,0,0,0c0,0,0,0,0,0c0-1.1,0.9-2,2-2c0.5,0,0.8,0.2,1.1,0.4
				c0.4-0.1,0.7-0.2,1.2-0.3h0.4c0.6,0,0.8,0.1,1.2,0.3C13.8,6.1,14.1,6,14.6,6c1.1,0,2,0.9,2,2c0,0,0,0,0,0c0,0,0,0,0,0l0.2,3.3
				C16.8,11.9,16.4,12.3,15.9,12.3z"/>
			<circle class="st0" cx="15.5" cy="8.2" r="0.4"/>
			<circle class="st0" cx="14.8" cy="8.9" r="0.4"/>
		</g>
	</g>
</g>
</svg>
