<?xml version="1.0" encoding="UTF-8"?>
<svg xmlns="http://www.w3.org/2000/svg" version="1.1" viewBox="0 0 637.6 609.2">
  <defs>
    <style>
      .cls-1 {
        fill: #fff;
      }
    </style>
  </defs>
  <!-- Generator: Adobe Illustrator 28.7.8, SVG Export Plug-In . SVG Version: 1.2.0 Build 200)  -->
  <g>
    <g id="Layer_2">
      <g>
        <path class="cls-1" d="M477.4,276.4c-13.4-79.8-82.8-140.6-166.4-140.6s-168.7,75.5-168.7,168.7,48.1,137.5,114.9,160c37-20.4,78.9-49.6,120.5-85.4,40.2-34.5,74.3-70.1,99.8-102.7ZM315,473.3c82-1.9,149.6-62.3,162.5-141.2-37,41.5-89.4,90.4-162.5,141.2Z"/>
        <path class="cls-1" d="M604.6,105.3c-37.7-43.9-189.4,24.8-338.9,153.3C116.1,387,25.5,526.7,63.1,570.6c37.7,43.9,189.4-24.8,338.9-153.3,149.5-128.5,240.2-268.2,202.5-312.1ZM382.6,401.1c-124,106.6-249,164.5-279.2,129.4-30.2-35.1,45.9-150,169.9-256.5,124-106.6,249-164.5,279.2-129.4,30.2,35.1-45.9,150-169.9,256.5Z"/>
        <path class="cls-1" d="M311.5,79.3c47.5,0,91.5,14.7,127.8,39.8,10.8-5.7,21.3-10.8,31.6-15.5,11.1-5,21.8-9.4,31.9-13-50.8-45.4-117.8-73-191.2-73C153,17.6,24.5,146.1,24.5,304.6s16.4,109.4,44.7,153.9c3.8-6.6,7.9-13.4,12.5-20.3,7.8-12.1,16.6-24.5,26.2-37.1-13.9-29.2-21.7-61.9-21.7-96.5,0-124.4,100.9-225.3,225.3-225.3ZM589.3,232.6c-1.1,1.7-2.1,3.4-3.3,5.1-13.8,21.2-30.4,43.4-49.3,65.9,0,.3,0,.7,0,1,0,124.4-100.9,225.3-225.3,225.3s-22-.8-32.6-2.4c-26.7,16.7-52.6,31-77,42.4,33.8,14,70.8,21.7,109.6,21.7,158.5,0,287-128.5,287-287s-3.2-49-9.1-72Z"/>
      </g>
    </g>
  </g>
</svg>