<?xml version="1.0" encoding="UTF-8"?>
<svg id="Layer_1" xmlns="http://www.w3.org/2000/svg" version="1.1" viewBox="0 0 24 24">
  <!-- Generator: Adobe Illustrator 29.6.1, SVG Export Plug-In . SVG Version: 2.1.1 Build 9)  -->
  <defs>
    <style>
      .st0 {
        fill: #fff;
      }
    </style>
  </defs>
  <path class="st0" d="M22.3,7.3v7.1c-.3.8-1.3.9-1.6,0v-6.9c-.2-.9-.8-1.4-1.6-1.4h-8.3c-.5,0-.8-.9-1.1-1.2s-.7-.6-1.3-.7c-1,0-2.5,0-3.5,0s-1.5.7-1.6,1.5v12.7c0,.7.5,1.2,1.2,1.4,5,0,10,0,14.9,0,.6-.2,1.1-.7,1.2-1.3s0-.4.2-.7c.4-.5,1.3-.3,1.4.3,0,.2,0,.4,0,.6-.1,1.4-1.3,2.6-2.7,2.8-5.1,0-10.1,0-15.2,0-1.4-.3-2.5-1.4-2.7-2.9V5.6c.1-1.7,1.4-2.9,3.1-3s2.7,0,3.7,0,2.2.8,2.8,1.9h.1c0,0,7.7,0,7.7,0,1.5,0,3,1.3,3.2,2.9Z"/>
  <path class="st0" d="M8.1,10.9h7.7c.9,0,1.5.7,1.7,1.6-.2,1.7.8,4.6-1.5,5h-7.9c-2.4-.4-1.3-3.4-1.5-5,.1-.8.7-1.5,1.6-1.6ZM8.1,12.6v3.3h0c0,0,7.6,0,7.6,0h0v-3.3s0,0,0,0h-7.5s0,0,0,0Z"/>
</svg>