<?xml version="1.0" encoding="UTF-8"?>
<svg id="Layer_1" xmlns="http://www.w3.org/2000/svg" version="1.1" viewBox="0 0 24 24">
  <!-- Generator: Adobe Illustrator 29.6.1, SVG Export Plug-In . SVG Version: 2.1.1 Build 9)  -->
  <defs>
    <style>
      .st0 {
        fill: #fff;
      }
    </style>
  </defs>
  <path class="st0" d="M8.9,10.5h7.3c.7,0,1.2.6,1.3,1.3-.1,2.5.2,5.2,0,7.7s-.5,1.2-1.2,1.3H2.6c-.6,0-1.2-.5-1.2-1.2v-10c0-.6.5-1.1,1.1-1.2h4.9c.8.2,1.2,1.4,1.6,2.1Z"/>
  <path class="st0" d="M3.8,7.1c0-.6.4-1.1,1-1.2s3.2-.1,3.9,0c1.2.1,1.3,1.3,1.9,2.1h8.3c.6,0,1.1.5,1.2,1.2v8.2c0,.6-.6,1.2-1.3,1.2v-8.2c0-.3-.7-1-1-1h-7.9c0,0-.2-.3-.2-.3-.2-.4-.7-1.5-1-1.7s-.2-.1-.2-.1H3.8Z"/>
  <path class="st0" d="M21.3,16V7.9c0-.6-.6-1.2-1.2-1.2h-8.8s-.9-1.7-.9-1.7c0-.1-.3-.4-.5-.4h-3.8c0-.7.5-1.2,1.2-1.3s2.2,0,2.9,0c1.2.1,1.2,1.3,1.7,2s0,.1.1.1h9.3c.6,0,1.1.5,1.2,1.1v8.4c0,.6-.6,1.1-1.3,1.1Z"/>
</svg>